<svg xmlns="http://www.w3.org/2000/svg" xmlns:xlink="http://www.w3.org/1999/xlink" version="1.1" width="1000" height="1000" viewBox="0 0 1000 1000" xml:space="preserve">
<desc>Created with Fabric.js 3.5.0</desc>
<defs>
</defs>
<rect x="0" y="0" width="100%" height="100%" fill="#ffffff"/>
<g transform="matrix(0 -1.6005 1.6005 0 499.9965 500.0017)" id="856360">
<g style="" vector-effect="non-scaling-stroke">
		<g transform="matrix(1 0 0 1 0 0)">
<rect style="stroke: none; stroke-width: 1; stroke-dasharray: none; stroke-linecap: butt; stroke-dashoffset: 0; stroke-linejoin: miter; stroke-miterlimit: 4; is-custom-font: none; font-file-url: none; fill: rgb(72,62,255); fill-rule: nonzero; opacity: 1;" x="-137" y="-284" rx="10" ry="10" width="274" height="568"/>
</g>
		<g transform="matrix(1 0 0 1 -56.7651 211.2288)">
<path style="stroke: none; stroke-width: 1; stroke-dasharray: none; stroke-linecap: butt; stroke-dashoffset: 0; stroke-linejoin: miter; stroke-miterlimit: 4; is-custom-font: none; font-file-url: none; fill: rgb(98,89,255); fill-rule: evenodd; opacity: 1;" transform=" translate(-80.2349, -495.2287)" d="M -34.692 543.101 C 3.247 632.538 168.767 685.017 211.96 612.52 c 43.194 -72.497 -66.099 -85.653 -104.735 -160.569 c -38.635 -74.916 -68.657 -121.674 -124.482 -104.607 c -55.824 17.068 -55.375 106.32 -17.436 195.757 Z" stroke-linecap="round"/>
</g>
		<g transform="matrix(1 0 0 1 60.587 238.9546)">
<path style="stroke: none; stroke-width: 1; stroke-dasharray: none; stroke-linecap: butt; stroke-dashoffset: 0; stroke-linejoin: miter; stroke-miterlimit: 4; is-custom-font: none; font-file-url: none; fill: rgb(249,129,142); fill-rule: evenodd; opacity: 1;" transform=" translate(-197.587, -522.9546)" d="M 233.095 601.153 c 60.679 -28.278 92.839 -143.526 41.875 -171.528 c -50.965 -28.003 -57.397 47.579 -108.059 75.987 c -50.662 28.408 -82.14 50.207 -69.044 88.241 c 13.096 38.034 74.549 35.578 135.228 7.3 Z" stroke-linecap="round"/>
</g>
		<g transform="matrix(1 0 0 1 50.383 197.04)">
<path style="stroke: rgb(255,255,255); stroke-width: 5; stroke-dasharray: none; stroke-linecap: round; stroke-dashoffset: 0; stroke-linejoin: bevel; stroke-miterlimit: 4; is-custom-font: none; font-file-url: none; fill: none; fill-rule: nonzero; opacity: 1;" transform=" translate(-187.383, -481.04)" d="m 165.305 469.097 l 10.607 -10.806 M 209.461 474.581 l -12.506 -10.503 M 187.56 488.991 l -6.908 14.798" stroke-linecap="round"/>
</g>
		<g transform="matrix(1 0 0 1 -136.695 195.891)">
<path style="stroke: none; stroke-width: 1; stroke-dasharray: none; stroke-linecap: butt; stroke-dashoffset: 0; stroke-linejoin: miter; stroke-miterlimit: 4; is-custom-font: none; font-file-url: none; fill: rgb(255,175,126); fill-rule: nonzero; opacity: 1;" transform=" translate(-0.305, -479.891)" d="M 0.305 546.891 c 37.003 0 67 -29.997 67 -67 s -29.997 -67 -67 -67 s -67 29.997 -67 67 s 29.997 67 67 67 Z" stroke-linecap="round"/>
</g>
</g>
</g>
</svg>